<svg width="26" height="26" viewBox="0 0 26 26" fill="none" xmlns="http://www.w3.org/2000/svg">
<path d="M15.4387 1.39562L15.6666 1.60813L16.5651 2.50656C16.8737 2.81371 17.2785 3.00309 17.7091 3.04563L17.895 3.05479H19.18C21.1847 3.05479 22.824 4.6225 22.9386 6.5986L22.945 6.81979V8.10354C22.945 8.54078 23.0957 8.96113 23.3677 9.29536L23.4916 9.43313L24.3901 10.3316C25.8045 11.7396 25.8677 13.9912 24.5719 15.4751L24.4029 15.6565L23.4924 16.5669C23.1862 16.8739 22.9967 17.279 22.9541 17.7091L22.945 17.8948V19.181C22.945 21.1857 21.3774 22.8239 19.4012 22.9384L19.18 22.9448H17.895C17.4593 22.9448 17.0384 23.0962 16.704 23.3689L16.5662 23.4932L15.6689 24.3892C14.2624 25.8053 12.0092 25.8681 10.5247 24.5718L10.3321 24.3915L9.43567 23.4951C9.12518 23.1868 8.71964 22.9967 8.29025 22.954L8.10498 22.9448H6.81873C4.81481 22.9448 3.17588 21.3779 3.06137 19.4022L3.05498 19.181V17.8948C3.05498 17.4598 2.90335 17.0385 2.63075 16.7047L2.5066 16.5672L1.61019 15.6696C0.194475 14.2618 0.131678 12.0086 1.42795 10.5256L1.59707 10.3444L2.50472 9.43548C2.8134 9.1246 3.00318 8.71983 3.0458 8.28939L3.05498 8.10354V6.81979L3.06137 6.59863C3.17165 4.69592 4.6956 3.17149 6.59764 3.06118L6.81873 3.05479H8.10498C8.54058 3.05479 8.96154 2.90368 9.29535 2.63221L9.43286 2.50859L10.3306 1.60963C11.7385 0.195282 13.9916 0.133015 15.4387 1.39562ZM11.8017 2.80327L11.6584 2.93349L10.7568 3.8363C10.1102 4.47828 9.25507 4.86213 8.35226 4.92165L8.10498 4.92979H6.81873C5.83428 4.92979 5.02463 5.68498 4.9377 6.64783L4.92998 6.81979V8.10354C4.92998 9.015 4.59922 9.89143 4.00261 10.5765L3.83335 10.7585L2.92439 11.6687C2.23462 12.3616 2.19446 13.4562 2.80403 14.1987L2.9346 14.3423L3.83368 15.2427C4.47668 15.8872 4.86204 16.7438 4.9218 17.6473L4.92998 17.8948V19.181C4.92998 20.1661 5.68461 20.9752 6.64687 21.0621L6.81873 21.0698H8.10498C9.01472 21.0698 9.89191 21.4009 10.5771 21.9976L10.7591 22.1669L11.6633 23.071C12.361 23.7649 13.4559 23.8053 14.1978 23.1957L14.3413 23.0652L15.2424 22.1653C15.8883 21.5225 16.7438 21.1376 17.6475 21.078L17.895 21.0698H19.18C20.1658 21.0698 20.9754 20.3155 21.0623 19.353L21.07 19.181V17.8948C21.07 16.9837 21.401 16.105 21.9968 15.4229L22.1658 15.2419L23.0752 14.3325C23.765 13.6388 23.8049 12.5448 23.1962 11.8025L23.0658 11.659L22.1635 10.7566C21.5211 10.1096 21.1376 9.25534 21.0781 8.35123L21.07 8.10354V6.81979C21.07 5.83428 20.3149 5.02445 19.352 4.93752L19.18 4.92979H17.895C16.9835 4.92979 16.106 4.5993 15.4223 4.00309L15.2408 3.83395L14.3809 2.97174L14.3311 2.92545C13.6382 2.23574 12.5434 2.19536 11.8017 2.80327ZM16.8705 15.553C16.958 15.6405 17.033 15.7405 17.083 15.853C17.1205 15.9655 17.1455 16.0905 17.1455 16.2155C17.1455 16.3418 17.1205 16.453 17.083 16.5655C17.033 16.678 16.958 16.7905 16.8705 16.878C16.6955 17.053 16.458 17.153 16.208 17.153C15.958 17.153 15.7205 17.053 15.5455 16.878C15.458 16.7905 15.3955 16.678 15.3455 16.5655C15.2955 16.453 15.2705 16.3418 15.2705 16.2155C15.2705 16.0905 15.2955 15.9655 15.3455 15.853C15.3955 15.7405 15.458 15.6405 15.5455 15.553C15.8955 15.203 16.5205 15.203 16.8705 15.553ZM16.875 9.124C17.2078 9.45684 17.2381 9.97766 16.9658 10.3447L16.875 10.4498L10.45 16.8748C10.0839 17.2409 9.49031 17.2409 9.12419 16.8748C8.79136 16.542 8.7611 16.0212 9.03342 15.6542L9.12419 15.549L15.5492 9.124C15.9153 8.75789 16.5089 8.75789 16.875 9.124ZM10.4454 9.12854C10.6204 9.30229 10.7204 9.54104 10.7204 9.79104C10.7204 9.91604 10.7079 10.0273 10.6579 10.141C10.6079 10.2535 10.5329 10.3535 10.4454 10.4535C10.3579 10.541 10.2579 10.6023 10.1454 10.6523C10.0329 10.7023 9.90785 10.7285 9.78285 10.7285C9.65785 10.7285 9.54535 10.7023 9.43285 10.6523C9.32035 10.6023 9.20785 10.541 9.12035 10.4535C9.03285 10.3535 8.97035 10.2535 8.92035 10.141C8.87035 10.0273 8.84535 9.91604 8.84535 9.79104C8.84535 9.66479 8.87035 9.54104 8.92035 9.42854C8.97035 9.31604 9.03285 9.20354 9.12035 9.12854C9.48285 8.77729 10.0954 8.77729 10.4454 9.12854Z" fill="#EA7C69"/>
</svg>
